<svg width="32" height="32" viewBox="0 0 32 32" fill="none" xmlns="http://www.w3.org/2000/svg">
  <rect width="32" height="32" rx="8" fill="#4F46E5"/>
  <path d="M22 11H10C8.89543 11 8 11.8954 8 13V19C8 20.1046 8.89543 21 10 21H22C23.1046 21 24 20.1046 24 19V13C24 11.8954 23.1046 11 22 11Z" stroke="white" stroke-width="2" stroke-linecap="round" stroke-linejoin="round"/>
  <path d="M16 17C16.5523 17 17 16.5523 17 16C17 15.4477 16.5523 15 16 15C15.4477 15 15 15.4477 15 16C15 16.5523 15.4477 17 16 17Z" fill="white"/>
  <path d="M20 17C20.5523 17 21 16.5523 21 16C21 15.4477 20.5523 15 20 15C19.4477 15 19 15.4477 19 16C19 16.5523 19.4477 17 20 17Z" fill="white"/>
  <path d="M12 17C12.5523 17 13 16.5523 13 16C13 15.4477 12.5523 15 12 15C11.4477 15 11 15.4477 11 16C11 16.5523 11.4477 17 12 17Z" fill="white"/>
</svg> 